<svg width="24" height="24" viewBox="0 0 24 24" fill="none" xmlns="http://www.w3.org/2000/svg">
<path d="M6.08167 10.0002C6.08167 9.44788 6.52939 9.00016 7.08167 9.00016H7.33179H8.83179H9.08167C9.63395 9.00016 10.0817 9.44788 10.0817 10.0002V12.0002C10.0817 12.5524 9.63395 13.0002 9.08167 13.0002H7.08167C6.52939 13.0002 6.08167 12.5524 6.08167 12.0002V10.0002Z" fill="#FAFAFA"/>
<path d="M6.75261 0.664754C6.56737 0.29427 6.11686 0.144102 5.74638 0.329344C5.37589 0.514586 5.22573 0.96509 5.41097 1.33557L5.46375 1.44115C5.63971 1.79306 5.63971 2.20727 5.46375 2.55918L5.41097 2.66475C5.22573 3.03524 5.37589 3.48574 5.74638 3.67098C6.11686 3.85623 6.56737 3.70606 6.75261 3.33557L6.80539 3.23C7.1925 2.4558 7.1925 1.54453 6.80539 0.770327L6.75261 0.664754Z" fill="#FAFAFA"/>
<path d="M14.7526 0.664755C14.5674 0.294271 14.1169 0.144102 13.7464 0.329343C13.3759 0.514584 13.2257 0.965089 13.411 1.33557L13.4638 1.44115C13.6397 1.79306 13.6397 2.20727 13.4638 2.55918L13.411 2.66475C13.2257 3.03523 13.3759 3.48574 13.7464 3.67098C14.1169 3.85623 14.5674 3.70606 14.7526 3.33558L14.8054 3.23001C15.1925 2.4558 15.1925 1.54453 14.8054 0.770328L14.7526 0.664755Z" fill="#FAFAFA"/>
<path d="M10.7526 1.33558C10.9379 0.965092 10.7877 0.514587 10.4172 0.329344C10.0467 0.144102 9.59621 0.29427 9.41097 0.664753L9.35818 0.770327C8.97108 1.54453 8.97108 2.4558 9.35818 3.23L9.41097 3.33557C9.59621 3.70606 10.0467 3.85623 10.4172 3.67098C10.7877 3.48574 10.9378 3.03524 10.7526 2.66475L10.6998 2.55918C10.5239 2.20727 10.5239 1.79306 10.6998 1.44115L10.7526 1.33558Z" fill="#FAFAFA"/>
<path fill-rule="evenodd" clip-rule="evenodd" d="M13.9252 4.52159C13.072 4.24971 12.0061 4.24988 10.2521 4.25015L10.0684 4.25016C9.25532 4.25016 8.59719 4.25016 8.05518 4.26941C7.33531 4.29496 6.75999 4.35536 6.23833 4.52159C4.13982 5.19028 2.60766 6.99894 2.29305 9.17883C2.16514 10.0651 2.34054 11.1165 2.62917 12.8466L3.53011 18.2522C3.639 18.9058 3.70552 19.3051 3.81079 19.6553C4.46453 21.8303 6.33723 23.4167 8.59009 23.704C8.95282 23.7502 9.35757 23.7502 10.0201 23.7502H10.1434C10.8059 23.7502 11.2108 23.7502 11.5735 23.704C13.8263 23.4167 15.699 21.8303 16.3528 19.6553C16.458 19.3051 16.5246 18.9058 16.6334 18.2523L16.72 17.7329C16.8392 17.7443 16.9599 17.7502 17.0818 17.7502C19.1529 17.7502 20.8318 16.0712 20.8318 14.0002C20.8318 12.2074 19.5738 10.7085 17.8925 10.338C17.9245 9.91548 17.9225 9.53902 17.8705 9.17883C17.5559 6.99894 16.0238 5.19028 13.9252 4.52159ZM10.0818 5.75016C12.0593 5.75016 12.8689 5.75931 13.4698 5.95078C15.0209 6.44503 16.1534 7.78187 16.3859 9.39309C16.4363 9.74247 16.42 10.1758 16.3224 10.8999C16.2557 11.3941 16.1558 11.994 16.0268 12.768L15.164 17.9449C15.0418 18.6779 14.9906 18.9763 14.9163 19.2235C14.4331 20.8311 13.0489 22.0037 11.3837 22.216C11.1277 22.2487 10.8249 22.2502 10.0818 22.2502C9.33864 22.2502 9.03589 22.2487 8.77983 22.216C7.11467 22.0037 5.7305 20.8311 5.2473 19.2235C5.173 18.9763 5.12176 18.6779 4.99959 17.9449L4.13678 12.768C3.81168 10.8175 3.68759 10.0173 3.77767 9.39309C4.01021 7.78187 5.14267 6.44503 6.69374 5.95078C6.87018 5.89456 7.07287 5.85254 7.33179 5.82205L7.33179 9.00016H7.5C7.5 9.00016 7.58579 9.00016 8 9.00016C8.41421 9.00016 8.5 9.00016 8.5 9.00016H8.83179L8.83179 5.75369C9.19301 5.7502 9.60472 5.75016 10.0818 5.75016ZM17.0818 16.2502C17.0435 16.2502 17.0054 16.2492 16.9676 16.2473L17.5083 13.0032C17.5802 12.572 17.6446 12.1851 17.6998 11.8361C18.6419 12.1046 19.3318 12.9718 19.3318 14.0002C19.3318 15.2428 18.3244 16.2502 17.0818 16.2502Z" fill="#FAFAFA"/>
</svg>
