<svg width="34" height="34" viewBox="0 0 34 34" fill="none" xmlns="http://www.w3.org/2000/svg">
<path d="M16.2897 9.88631C15.8755 9.88816 15.5412 10.2254 15.543 10.6396C15.5449 11.0539 15.8821 11.3881 16.2964 11.3863L18.7785 11.3752C19.7859 11.3707 20.478 11.3688 21.0053 11.4263C21.1766 11.4451 21.3198 11.4692 21.4414 11.4983L10.8129 22.1268C10.52 22.4197 10.52 22.8946 10.8129 23.1874C11.1058 23.4803 11.5807 23.4803 11.8736 23.1874L22.5021 12.559C22.5312 12.6806 22.5553 12.8238 22.574 12.9951C22.6316 13.5224 22.6297 14.2145 22.6252 15.2219L22.6141 17.704C22.6122 18.1182 22.9465 18.4555 23.3607 18.4574C23.7749 18.4592 24.1122 18.1249 24.1141 17.7107L24.1253 15.1838C24.1296 14.2321 24.1331 13.4543 24.0652 12.8323C23.9945 12.1855 23.839 11.6128 23.4576 11.12C23.374 11.012 23.2837 10.9095 23.1873 10.8131C23.0909 10.7167 22.9884 10.6264 22.8804 10.5428C22.3876 10.1614 21.8149 10.0059 21.1681 9.93521C20.5461 9.86728 19.7682 9.87077 18.8165 9.87503L16.2897 9.88631Z" fill="#FAFAFA"/>
</svg>
